<svg xmlns="http://www.w3.org/2000/svg" viewBox="0 0 512 512">
  <defs>
    <linearGradient id="flowGrad" x1="0%" y1="0%" x2="100%" y2="100%">
      <stop offset="0%" style="stop-color:#4F46E5"/>
      <stop offset="100%" style="stop-color:#06B6D4"/>
    </linearGradient>
  </defs>
  <rect width="512" height="512" rx="80" fill="white"/>
  <path d="M 140 100 
           L 140 412 
           Q 140 436 164 436 
           Q 188 436 188 412 
           L 188 280
           Q 188 256 212 256
           L 320 256
           Q 344 256 344 232
           Q 344 208 320 208
           L 212 208
           Q 188 208 188 184
           L 188 148
           Q 188 124 212 124
           L 356 124
           Q 380 124 380 100
           Q 380 76 356 76
           L 164 76
           Q 140 76 140 100
           Z" 
        fill="url(#flowGrad)"/>
  <path d="M 230 310
           Q 230 290 250 290
           L 300 290
           Q 320 290 340 310
           L 380 350
           Q 400 370 400 400
           Q 400 420 380 420
           Q 360 420 340 400
           L 300 360
           Q 280 340 260 340
           Q 240 340 230 340
           Q 230 330 230 310
           Z"
        fill="url(#flowGrad)" opacity="0.7"/>
</svg>
